<?xml version="1.0" encoding="UTF-8" standalone="no"?>
<!-- Created with Inkscape (http://www.inkscape.org/) -->

<svg
   xmlns:dc="http://purl.org/dc/elements/1.1/"
   xmlns:cc="http://creativecommons.org/ns#"
   xmlns:rdf="http://www.w3.org/1999/02/22-rdf-syntax-ns#"
   xmlns:svg="http://www.w3.org/2000/svg"
   xmlns="http://www.w3.org/2000/svg"
   xmlns:sodipodi="http://sodipodi.sourceforge.net/DTD/sodipodi-0.dtd"
   xmlns:inkscape="http://www.inkscape.org/namespaces/inkscape"
   width="118.73502mm"
   height="133.36925mm"
   viewBox="0 0 118.73502 133.36925"
   version="1.1"
   id="svg8"
   inkscape:version="0.92.3 (2405546, 2018-03-11)"
   sodipodi:docname="Glifo del Pachuca.svg">
  <defs
     id="defs2" />
  <sodipodi:namedview
     id="base"
     pagecolor="#ffffff"
     bordercolor="#666666"
     borderopacity="1.0"
     inkscape:pageopacity="0.0"
     inkscape:pageshadow="2"
     inkscape:zoom="0.49497475"
     inkscape:cx="44.40609"
     inkscape:cy="421.17148"
     inkscape:document-units="mm"
     inkscape:current-layer="layer1"
     showgrid="false"
     inkscape:window-width="1366"
     inkscape:window-height="706"
     inkscape:window-x="-8"
     inkscape:window-y="-8"
     inkscape:window-maximized="1" />
  <metadata
     id="metadata5">
    <rdf:RDF>
      <cc:Work
         rdf:about="">
        <dc:format>image/svg+xml</dc:format>
        <dc:type
           rdf:resource="http://purl.org/dc/dcmitype/StillImage" />
        <dc:title></dc:title>
      </cc:Work>
    </rdf:RDF>
  </metadata>
  <g
     inkscape:label="Capa 1"
     inkscape:groupmode="layer"
     id="layer1"
     transform="translate(-42.653447,-42.925249)">
    <path
       style="fill:#000000;fill-opacity:1;stroke:#000000;stroke-width:0.26458332;stroke-opacity:1"
       d="m 68.149104,175.91626 c -4.86992,-0.72961 -10.16288,-3.19223 -14.62279,-6.80344 -4.50921,-3.65114 -7.29305,-7.78615 -9.42795,-14.00394 -1.07321,-3.12571 -1.45283,-6.07782 -1.26781,-9.85924 0.29341,-5.99674 1.79433,-10.56168 5.112,-15.54784 1.87115,-2.81216 5.77813,-6.77395 8.01987,-8.13238 l 1.70395,-1.03254 -1.35588,-0.30537 c -3.32267,-0.74833 -5.88036,-3.97573 -5.88589,-7.42707 -0.001,-0.88779 0.13627,-2.01247 0.30597,-2.49929 0.38799,-1.11299 1.67909,-3.04221 2.35082,-3.51271 0.49314,-0.34541 0.48766,-0.36918 -0.16558,-0.71878 -0.64956,-0.34763 -2.07765,-2.10802 -2.73804,-3.37512 -0.17416,-0.33416 -0.42315,-1.26192 -0.55331,-2.06168 -0.37693,-2.315944 0.41759,-4.500114 2.36566,-6.503344 l 1.52814,-1.57139 -0.7335,-0.78521 c -1.09816,-1.17559 -1.92851,-3.10084 -2.04385,-4.73887 -0.2253,-3.19964 2.02581,-6.63497 5.03231,-7.6796 2.15752,-0.74964 3.85931,-0.64638 6.32404,0.38374 0.36807,0.15384 0.45728,-0.11955 0.61553,-1.88642 0.75899,-8.4744 4.70985,-16.45547 11.60319,-23.43945 4.31452,-4.37124 8.90781,-7.22244 14.99263,-9.30639 4.62225,-1.58304 7.55324,-2.05643 12.707156,-2.05236 4.99348,0.004 8.07336,0.47674 12.17083,1.8684 6.40029,2.17377 10.15363,4.44691 14.89946,9.02358 5.2073,5.02168 7.78526,8.93354 10.02564,15.2131 1.1929,3.34358 1.96233,6.45532 2.22137,8.98369 0.15255,1.489 0.24932,1.74263 0.60659,1.58986 2.47805,-1.05968 3.85383,-1.14499 6.04503,-0.37484 1.81527,0.63801 3.84813,2.49804 4.62665,4.23328 0.80631,1.79717 0.75125,4.5057 -0.12639,6.21771 -0.37299,0.72761 -1.04091,1.6673 -1.48426,2.08821 l -0.80609,0.76529 1.01874,0.73798 c 2.14883,1.5566 3.1593,3.55056 3.17832,6.2718 0.009,1.329354 -0.14462,1.970694 -0.77052,3.210584 -0.66502,1.3174 -2.63861,3.4626 -3.1856,3.4626 -0.0926,0 0.38038,0.56927 1.05102,1.26504 0.98061,1.01737 1.31617,1.62275 1.7139,3.09207 0.43361,1.6019 0.45428,2.0247 0.16774,3.43131 -0.17975,0.88236 -0.62275,2.11377 -0.98445,2.73647 -0.81686,1.40628 -3.05553,2.93626 -4.90624,3.35307 l -1.36757,0.30801 1.43469,0.881 c 2.69758,1.65651 4.42464,3.22615 6.80412,6.18393 2.88463,3.5857 3.98565,5.54049 5.18799,9.2109 1.84038,5.61819 2.13461,9.13641 1.2149,14.52697 -0.77416,4.53739 -1.9246,7.37397 -4.70559,11.60234 -1.58608,2.41157 -4.30677,5.28381 -6.88218,7.26554 -2.16776,1.66806 -8.09329,4.50178 -10.90018,5.21273 -3.46079,0.87655 -7.88306,0.98601 -11.53376,0.28546 -1.61414,-0.30975 -3.29564,-0.56318 -3.73668,-0.56318 -0.44103,0 -1.33664,-0.23654 -1.99023,-0.52566 -1.1466,-0.5072 -1.8156,-0.52604 -19.04503,-0.53631 -17.360546,-0.0103 -17.891446,0.004 -19.107846,0.52566 -0.68814,0.29497 -1.57551,0.53631 -1.97194,0.53631 -0.39643,0 -2.01686,0.23813 -3.60097,0.52917 -2.9742,0.54644 -6.49247,0.64149 -9.12813,0.24662 z"
       id="path847"
       inkscape:connector-curvature="0" />
    <path
       style="fill:#008000;fill-opacity:1;stroke:#000000;stroke-width:0.26458332;stroke-opacity:1"
       d="m 76.550554,174.75996 c 0.10863,-0.11125 -0.088,-0.39857 -0.43695,-0.63848 -3.12263,-2.14689 -4.29581,-6.38303 -2.65727,-9.59484 0.81549,-1.59849 2.42009,-2.99696 4.17138,-3.63551 1.54557,-0.56354 1.70712,-0.56732 24.259676,-0.56732 26.05409,0 24.64195,-0.11731 26.95899,2.23954 0.71407,0.72634 1.53263,1.85032 1.81901,2.49773 0.64103,1.44916 0.68764,3.98814 0.099,5.39353 -0.52996,1.2653 -2.06507,3.153 -2.94861,3.62585 -1.2816,0.6859 -0.29476,0.92777 3.78041,0.9266 4.31942,-0.001 6.06772,-0.32651 10.23937,-1.90496 5.29796,-2.00463 9.62618,-5.33902 12.80901,-9.86788 2.76742,-3.93775 4.26105,-7.54456 5.05755,-12.21294 0.48149,-2.82202 0.50905,-3.52468 0.25577,-6.52129 -0.58015,-6.86378 -2.499,-11.46298 -7.27801,-17.44426 -2.04478,-2.5592 -5.24292,-4.85052 -10.41258,-7.46016 -1.57467,-0.79489 -2.47662,-1.74746 -3.39872,-3.58947 -0.77046,-1.53907 -0.96973,-2.55151 -0.55409,-2.81512 0.56659,-0.35934 0.69171,-0.27012 0.88682,0.63231 0.80057,3.70283 4.42039,6.25736 7.73313,5.4573 1.84126,-0.44467 3.70483,-1.52771 4.30797,-2.50361 1.96676,-3.18229 1.39668,-7.18223 -1.31656,-9.23754 -1.44241,-1.09265 -1.49058,-1.36838 -0.34255,-1.96101 1.35719,-0.70059 2.84147,-2.3151 3.38042,-3.67699 0.53209,-1.34459 0.42126,-3.986804 -0.21903,-5.221884 -0.58533,-1.12904 -2.2664,-2.77843 -3.14338,-3.08415 -0.8343,-0.29084 -1.03819,-1.17718 -0.33304,-1.44777 0.23168,-0.0889 0.94605,-0.8829 1.5875,-1.76443 1.14963,-1.57994 1.16624,-1.63313 1.16526,-3.73265 -7.9e-4,-1.69128 -0.11531,-2.32057 -0.55614,-3.05592 -1.91391,-3.19255 -4.9725,-4.37669 -8.28464,-3.20743 -0.86116,0.30401 -1.83236,0.80322 -2.15822,1.10935 -0.88642,0.83275 -2.22917,3.51337 -2.22917,4.45022 0,0.64647 -0.11344,0.82286 -0.52917,0.82286 -1.21629,0 -0.24029,-3.53948 1.45916,-5.29166 l 0.89817,-0.92604 -0.27304,-1.98438 c -0.95086,-6.91074 -4.13761,-14.98929 -7.47183,-18.94148 l -1.35934,-1.61127 -1.45521,1.10275 c -0.80036,0.60651 -1.81599,1.31203 -2.25694,1.56782 -1.02071,0.59208 -4.18694,6.56496 -4.18197,7.88898 0.003,0.9103 0.79451,6.36297 1.03574,7.13898 0.27128,0.87265 -0.46435,6.98526 -1.22701,10.19567 -0.78932,3.32262 -1.77526,5.64231 -3.28963,7.7398 -1.58904,2.20089 -1.74578,2.68381 -1.42836,4.4009 0.15612,0.84449 0.50568,1.970264 0.7768,2.501714 0.6767,1.32645 1.65402,7.19126 1.42635,8.55939 -0.2638,1.58519 -1.07077,2.992 -1.98849,3.46657 -0.77561,0.40109 -0.88126,0.38511 -2.51826,-0.38094 -1.54357,-0.72232 -1.77166,-0.93485 -2.36025,-2.19913 -0.51162,-1.09895 -0.65211,-1.83238 -0.65414,-3.41478 -0.005,-3.55798 -1.3525,-5.64342 -3.32729,-5.14778 -1.75557,0.44062 -2.43256,2.32652 -1.95049,5.43352 0.44157,2.84596 -0.27397,6.67365 -1.81063,9.68574 -0.29507,0.57839 -1.44616,1.9103 -2.55799,2.9598 -1.11182,1.04951 -2.17907,2.29696 -2.37166,2.77212 -0.1926,0.47516 -0.42719,2.23314 -0.52132,3.90663 -0.30099,5.35126 -1.828146,9.98695 -4.275556,12.97841 -2.77103,3.38702 -4.72976,4.73135 -6.91048,4.74286 -0.90147,0.005 -1.22158,-0.13753 -1.76663,-0.78529 -1.05625,-1.25528 -1.33951,-3.21566 -0.82475,-5.70781 0.51329,-2.48499 0.76385,-3.00318 2.49534,-5.16065 0.98662,-1.22935 1.32929,-1.87911 1.32929,-2.52054 0,-0.83417 -0.0275,-0.85631 -0.79269,-0.63687 -1.68084,0.48206 -3.45841,2.22929 -6.46058,6.35031 -4.64576,6.37714 -7.35443,9.27231 -9.86796,10.5474 -1.96917,0.99895 -4.91816,0.64557 -6.75621,-0.80958 -1.27707,-1.01103 -1.89745,-2.95228 -1.88596,-5.90137 0.007,-1.75007 0.12774,-2.34999 0.69823,-3.46386 0.99158,-1.93606 3.09866,-3.71059 6.56576,-5.52952 2.53304,-1.32891 3.44274,-1.99165 5.62924,-4.10105 2.71086,-2.61525 3.57142,-3.91811 4.1159,-6.23136 0.17271,-0.73377 0.65039,-2.00097 1.0615,-2.81601 0.48249,-0.95654 0.66684,-1.60914 0.52001,-1.84087 -0.76655,-1.20977 0.16045,-3.42645 1.87379,-4.48068 0.67495,-0.4153 1.58916,-1.20563 2.03159,-1.75628 2.02085,-2.51523 2.43578,-4.46559 2.27382,-10.687824 -0.13381,-5.14116 0.22523,-8.02298 1.3784,-11.06349 0.36285,-0.95671 0.78355,-2.23461 0.93489,-2.83978 0.16773,-0.67073 0.60943,-1.39993 1.13136,-1.86775 0.47091,-0.42209 1.09016,-1.21959 1.3761,-1.77222 0.57374,-1.10881 2.29105,-2.33009 5.01017,-3.563 1.941056,-0.88012 6.204936,-4.21743 6.734626,-5.27114 0.19715,-0.3922 0.63485,-1.1298 0.97266,-1.63912 0.7748,-1.16817 1.53829,-3.79352 1.31125,-4.50886 -0.34084,-1.0739 0.43737,-4.29678 1.59455,-6.60364 1.09974,-2.19236 2.1565,-3.35733 3.83288,-4.22536 1.25173,-0.64815 2.89855,-2.15171 4.49029,-4.09968 0.87732,-1.07366 1.59513,-2.019 1.59513,-2.10075 0,-0.66698 -8.46089,-3.72971 -11.83021,-4.28238 -3.10591,-0.50946 -9.109376,-0.57028 -12.246866,-0.12407 -3.02258,0.42986 -8.29449,2.16483 -11.40137,3.75214 -7.47792,3.82049 -12.40174,8.50034 -16.3681,15.55704 -2.72797,4.85345 -3.92947,8.44546 -4.60907,13.77931 l -0.38768,3.04271 0.62602,0.66145 c 0.73344,0.77496 1.86364,3.22404 2.12107,4.59623 0.15924,0.84881 0.11756,0.96002 -0.35975,0.96002 -0.44487,0 -0.59443,-0.26769 -0.85002,-1.52135 -0.40664,-1.9946 -1.06484,-3.02568 -2.56642,-4.02028 -3.42678,-2.26981 -7.43773,-1.45808 -9.54157,1.93102 -1.76576,2.84444 -1.33932,6.0927 1.08772,8.28539 1.34457,1.21474 1.43394,1.83435 0.31773,2.20273 -1.24835,0.412 -2.71186,2.0635 -3.17153,3.57893 -1.06073,3.496994 0.18667,6.859994 3.10036,8.358594 1.08164,0.55632 1.28675,1.16416 0.47932,1.42043 -0.70536,0.22387 -2.10155,1.86481 -2.69113,3.16287 -0.92312,2.03242 -0.47624,5.50721 0.89784,6.98127 0.3225,0.34597 1.14303,0.91241 1.8234,1.25876 3.21585,1.63706 5.71153,1.31525 8.0593,-1.0392 1.14586,-1.14911 1.40799,-1.60116 1.67241,-2.88405 0.32253,-1.56485 0.41366,-1.67747 1.03758,-1.28229 0.30629,0.19401 0.291,0.46513 -0.0956,1.69411 -0.911,2.89634 -1.36034,3.32745 -6.4868,6.22363 -4.43101,2.50328 -5.45277,3.35214 -8.36248,6.94732 -5.34768,6.6075 -7.60699,14.52851 -6.4424,22.58665 0.58751,4.06518 3.73743,11.13523 6.26591,14.06396 1.88148,2.1793 5.99956,5.6873 7.70214,6.56107 3.49884,1.79564 7.77456,3.26587 10.75871,3.69947 1.25504,0.18235 7.52126,0.005 7.73999,-0.21871 z"
       id="path845"
       inkscape:connector-curvature="0" />
    <path
       style="fill:#db111c;fill-opacity:1;stroke:#000000;stroke-width:0.26458332;stroke-opacity:1"
       d="m 82.528344,173.78789 0.6458,-0.29424 -0.62635,-0.92299 c -1.30552,-1.92378 -0.99707,-4.07354 0.77533,-5.40376 l 0.83327,-0.62538 h 17.912776 17.91277 l 1.09313,1.05833 c 1.0769,1.04261 1.09169,1.08208 0.9959,2.65709 -0.067,1.10111 -0.27686,1.851 -0.67428,2.40913 l -0.57704,0.81038 0.66468,0.30284 c 0.91203,0.41555 3.64796,0.381 4.68317,-0.0591 1.54734,-0.65789 3.25884,-2.4151 3.62458,-3.72139 0.43345,-1.54815 0.2489,-3.97153 -0.40433,-5.30933 -0.65242,-1.33614 -2.56731,-2.64449 -4.43921,-3.03309 -0.97495,-0.2024 -8.26693,-0.26857 -23.87601,-0.21665 l -22.472386,0.0747 -1.5875,0.81567 c -1.28138,0.65839 -1.72466,1.06579 -2.29883,2.11278 -0.39124,0.7134 -0.7889,1.86098 -0.88369,2.55018 -0.34414,2.50221 1.35549,5.52236 3.71169,6.59546 1.20495,0.54877 3.97647,0.65959 4.98653,0.19937 z"
       id="path843"
       inkscape:connector-curvature="0" />
    <path
       style="fill:#c3c3c3;fill-opacity:1;stroke:#000000;stroke-width:0.26458332;stroke-opacity:1"
       d="m 119.75013,172.58822 c 1.04164,-0.69357 1.31564,-1.17971 1.31564,-2.33424 0,-1.26812 -0.48388,-2.06471 -1.5132,-2.49106 -0.54196,-0.22449 -5.37571,-0.28748 -18.02737,-0.23491 l -17.286846,0.0718 -0.64193,0.79375 c -0.89788,1.11023 -1.0121,1.79041 -0.48663,2.89777 0.84648,1.78382 0.037,1.71013 18.913246,1.72184 15.42008,0.01 17.13624,-0.0316 17.72709,-0.42499 z"
       id="path841"
       inkscape:connector-curvature="0" />
    <path
       style="fill:#ffff71;fill-opacity:1;stroke:#000000;stroke-width:0.26458332;stroke-opacity:1"
       d="m 73.719704,144.75452 c 2.42254,-1.55001 4.02709,-3.21454 7.62569,-7.91074 5.57997,-7.28189 5.43757,-7.12953 7.75001,-8.2922 1.13339,-0.56986 2.10844,-1.0361 2.16677,-1.0361 0.34477,0 0.74776,1.76929 0.63363,2.78185 -0.10692,0.9486 -0.34951,1.3951 -1.21359,2.23366 -1.4022,1.36079 -2.00596,2.58316 -2.55612,5.17514 -0.42841,2.01838 -0.42663,2.17729 0.0399,3.56768 0.51361,1.53062 0.97245,1.82218 2.33108,1.48118 1.32597,-0.33279 3.83629,-2.32972 5.14086,-4.08948 2.6204,-3.53474 3.84602,-7.33044 4.21917,-13.06667 0.276396,-4.24885 0.459316,-4.65043 3.104276,-6.81524 1.4826,-1.21346 1.92958,-1.78106 2.69644,-3.42408 1.28053,-2.74356 1.80027,-5.87996 1.39291,-8.4057 -0.44461,-2.75671 -0.1679,-4.14917 1.07061,-5.38769 0.55431,-0.5543 1.49269,-1.15309 2.08529,-1.33064 1.02643,-0.307534 1.12424,-0.285144 2.06568,0.47272 1.39365,1.12189 2.16033,3.10798 2.17073,5.62321 0.0112,2.6997 0.66527,4.03851 2.40346,4.91932 0.7041,0.35679 1.46962,0.57601 1.70116,0.48716 0.55374,-0.21249 1.08895,-1.28975 1.31397,-2.64474 0.21075,-1.26904 -0.68432,-6.63452 -1.42413,-8.53691 -0.26071,-0.670394 -0.61721,-1.826854 -0.79222,-2.569914 l -0.31822,-1.351 2.17345,-4.02186 c 1.88142,-3.4815 2.27182,-4.43755 2.90562,-7.11566 0.76648,-3.23881 1.46464,-9.0442 1.17761,-9.7922 -0.23655,-0.61645 -1.03212,-6.35446 -1.02657,-7.40415 0.006,-1.10145 3.04349,-7.09127 4.02306,-7.93287 0.38678,-0.3323 1.51216,-1.14197 2.50085,-1.79926 l 1.79762,-1.19508 -0.80416,-1.01534 c -0.44229,-0.55844 -1.53972,-1.69634 -2.43874,-2.52867 l -1.63458,-1.51333 -0.45856,0.89382 c -0.2522,0.49161 -1.17491,1.55584 -2.05046,2.36496 -1.34277,1.24089 -1.6625,1.71622 -2.04304,3.03722 -0.24812,0.86136 -0.71584,2.10188 -1.03937,2.75673 -0.32354,0.65484 -0.71938,1.7264 -0.87965,2.38125 -0.45391,1.85462 -2.58103,6.51701 -3.61732,7.92871 -1.23626,1.68413 -1.74161,3.13222 -1.98823,5.69733 l -0.2035,2.11666 0.8766,0.97346 c 1.45016,1.6104 1.84444,4.36606 1.05118,7.34682 -0.91451,3.43638 -0.99853,5.06637 -0.41887,8.12635 0.29881,1.57737 0.95205,4.413774 1.45165,6.303104 0.87602,3.31283 0.88966,3.81911 0.1034,3.83685 -0.33355,0.008 -1.84581,-5.92274 -2.72521,-10.686764 -0.45941,-2.48883 -0.4216,-3.09132 0.41669,-6.6394 0.81699,-3.45791 0.55098,-6.43746 -0.69793,-7.81749 -0.4468,-0.4937 -0.49792,-0.47208 -2.03702,0.86126 -0.8683,0.75222 -1.62,1.494 -1.67046,1.64841 -0.0505,0.15441 -0.22525,0.80153 -0.38843,1.43805 -0.29052,1.13325 -1.59674,2.63861 -4.56642,5.26258 -0.53759,0.47501 -1.34199,1.48704 -1.78755,2.24896 l -0.81011,1.38531 0.0691,4.23334 0.0691,4.233334 -1.01459,2.24896 c -0.55803,1.23692 -1.728266,3.8563 -2.600536,5.82083 -0.87227,1.96453 -2.17888,4.75373 -2.90359,6.19822 -1.29025,2.57172 -1.31406,2.66252 -1.14514,4.36563 0.0949,0.9566 0.292,2.43304 0.43803,3.28098 0.51438,2.98662 -0.4563,7.95992 -2.24076,11.48064 -0.49438,0.9754 -0.81623,1.336 -1.09646,1.22846 -0.48801,-0.18726 -0.48814,-0.20958 -0.007,-1.14069 1.42987,-2.76506 2.87066,-9.05521 2.41209,-10.53058 -0.0791,-0.25458 -0.25335,-1.4526 -0.38715,-2.66227 -0.1338,-1.20966 -0.30978,-2.2659 -0.39107,-2.3472 -0.0813,-0.0813 -1.43313,0.75973 -3.00408,1.86894 -2.95671,2.08765 -5.67195,4.89441 -8.86127,9.15995 -0.81603,1.09141 -2.45264,3.01978 -3.63689,4.28526 -2.47485,2.64461 -3.99195,3.50565 -6.56384,3.72537 -1.46475,0.12514 -1.65365,0.0872 -1.65365,-0.33194 0,-0.5186 0.70247,-0.79026 2.05807,-0.79591 1.26587,-0.005 3.71306,-1.35647 5.11777,-2.82574 0.67249,-0.7034 2.09246,-2.41001 3.15549,-3.79245 2.68197,-3.48785 5.58335,-6.89147 6.74102,-7.90792 0.53586,-0.47048 2.28469,-1.71141 3.88631,-2.75761 2.85177,-1.86282 2.93264,-1.94325 3.90821,-3.88656 0.8118,-1.61709 2.92962,-6.43443 5.207406,-11.84515 l 0.36413,-0.86495 -2.849926,1.43504 c -3.11193,1.56696 -5.24707,3.37336 -6.44682,5.45423 -0.88035,1.5269 -2.95138,3.07166 -3.39747,2.53414 -0.24459,-0.2947 -0.0643,-0.54068 0.90779,-1.23881 0.68989,-0.49544 1.55009,-1.46031 1.99471,-2.23742 1.03504,-1.80907 3.99755,-4.14087 7.71444,-6.07206 1.784726,-0.9273 2.996606,-1.72809 3.160896,-2.08867 0.17918,-0.39324 0.17729,-1.70048 -0.006,-3.991134 l -0.27221,-3.40634 1.08041,-2.07669 c 1.13995,-2.19114 1.59769,-2.73728 4.01792,-4.79396 1.39529,-1.18571 2.78384,-3.20769 2.43936,-3.55217 -0.0819,-0.0819 -1.19154,0.16926 -2.46586,0.55815 -1.27431,0.38889 -2.57103,0.70556 -2.8816,0.70372 -0.64218,-0.004 -4.423056,1.85665 -5.321126,2.61836 -0.7886,0.66885 -1.57294,2.55329 -1.93996,4.66085 -0.244,1.40116 -0.38981,1.71328 -0.80036,1.71328 -0.5886,0 -0.58613,0.0231 -0.21297,-1.99552 0.43108,-2.33191 1.57077,-4.6116 2.78859,-5.5779 1.39188,-1.10442 3.461326,-2.13169 4.742196,-2.35401 0.57404,-0.0996 2.23434,-0.47059 3.68955,-0.82433 2.24886,-0.54668 2.76492,-0.77477 3.43958,-1.52019 0.43657,-0.48235 1.17653,-1.13831 1.64436,-1.45768 0.92863,-0.63393 1.39441,-1.83483 1.39688,-3.60142 0.002,-1.70386 0.94528,-4.53474 1.97986,-5.94412 1.15354,-1.57144 3.17398,-5.82221 3.6066,-7.58788 0.173,-0.7061 0.57983,-1.8196 0.90406,-2.47445 0.32423,-0.65484 0.67822,-1.60734 0.78665,-2.11666 0.38851,-1.82492 0.96915,-2.86809 1.99032,-3.57576 0.98988,-0.68599 3.12402,-3.43698 2.86627,-3.69473 -0.33079,-0.3308 -3.44696,-2.25451 -3.65201,-2.25451 -0.12822,0 -0.66225,0.58458 -1.18673,1.29908 -1.02422,1.39527 -3.73412,4.01297 -4.87521,4.70935 -2.49452,1.52235 -2.73286,1.77448 -3.93655,4.16425 -1.13851,2.26038 -1.21743,2.55864 -1.40382,5.30544 -0.22458,3.30969 -0.59343,4.51116 -2.10022,6.84109 -1.43776,2.22317 -6.24043,6.09982 -8.568986,6.91677 -2.22921,0.78209 -2.72876,1.13889 -3.51986,2.51401 -0.37672,0.65485 -1.01462,1.54782 -1.41754,1.98438 -1.01793,1.1029 -2.2621,4.39197 -2.93216,7.7514 -0.49118,2.46263 -0.54707,3.43575 -0.42855,7.46214 0.21831,7.416684 -0.30268,9.007284 -4.21429,12.866404 -2.21135,2.18168 -2.50418,2.75226 -1.9469,3.79354 0.19495,0.36427 0.0685,0.9076 -0.50614,2.17496 -0.4213,0.92917 -0.94367,2.36974 -1.16081,3.20128 -0.60395,2.31276 -1.4605,3.52403 -4.73577,6.69691 -2.59272,2.51168 -3.36119,3.08939 -5.51253,4.14422 -2.8194,1.38238 -5.26823,3.39925 -6.13678,5.05427 -1.13437,2.16154 -0.55856,6.74871 1.02298,8.14952 0.6451,0.57139 2.04242,0.96093 3.55436,0.99087 0.89963,0.0178 1.50304,-0.16686 2.38125,-0.72876 z"
       id="path837"
       inkscape:connector-curvature="0" />
  </g>
</svg>
